<svg id="svg" xmlns="http://www.w3.org/2000/svg" xmlns:xlink="http://www.w3.org/1999/xlink" width="400" height="402.5412960609911" viewBox="0, 0, 400,402.5412960609911" version="1.1"><g id="svgg"><path id="path0" d="M195.648 58.133 C 195.182 59.196,194.800 60.172,194.800 60.302 C 194.800 60.591,192.957 65.331,192.172 67.060 C 191.857 67.754,191.598 68.474,191.596 68.660 C 191.594 68.847,190.771 70.980,189.767 73.400 C 188.764 75.820,187.758 78.340,187.533 79.000 C 187.308 79.660,186.754 81.010,186.303 82.000 C 183.414 88.342,181.600 92.741,181.600 93.404 C 181.600 93.732,181.449 94.000,181.264 94.000 C 181.079 94.000,180.686 94.765,180.390 95.700 C 180.095 96.635,179.538 98.030,179.154 98.800 C 178.770 99.570,177.970 101.370,177.377 102.800 C 176.784 104.230,175.871 106.350,175.349 107.512 C 174.827 108.673,174.400 109.718,174.400 109.834 C 174.400 109.949,174.061 110.799,173.647 111.722 C 173.233 112.645,172.321 114.750,171.621 116.400 C 170.921 118.050,170.101 119.940,169.800 120.600 C 169.498 121.260,168.239 124.230,167.002 127.200 C 165.765 130.170,164.499 133.140,164.189 133.800 C 163.879 134.460,163.059 136.350,162.366 138.000 C 161.674 139.650,160.678 141.950,160.154 143.112 C 159.629 144.273,159.200 145.353,159.201 145.512 C 159.202 145.670,158.842 146.565,158.401 147.500 C 157.071 150.323,156.186 152.364,154.021 157.600 C 152.884 160.350,151.623 163.320,151.219 164.200 C 150.815 165.080,149.463 168.230,148.214 171.200 C 146.965 174.170,145.706 177.140,145.416 177.800 C 145.125 178.460,144.322 180.350,143.631 182.000 C 142.940 183.650,142.121 185.540,141.811 186.200 C 141.500 186.860,140.242 189.830,139.013 192.800 C 137.785 195.770,136.526 198.740,136.216 199.400 C 135.906 200.060,135.079 201.950,134.380 203.600 C 133.680 205.250,132.678 207.550,132.154 208.712 C 131.629 209.873,131.200 211.048,131.200 211.323 C 131.200 211.597,130.938 212.196,130.618 212.653 C 130.298 213.110,129.782 214.185,129.471 215.042 C 128.901 216.612,125.616 224.373,124.579 226.600 C 124.271 227.260,123.011 230.230,121.779 233.200 C 120.546 236.170,119.288 239.140,118.983 239.800 C 118.678 240.460,117.511 243.160,116.388 245.800 C 112.861 254.096,112.323 255.345,111.349 257.512 C 110.827 258.673,110.400 259.753,110.401 259.912 C 110.402 260.070,110.042 260.965,109.601 261.900 C 109.160 262.835,108.440 264.365,107.999 265.300 C 107.558 266.235,107.198 267.130,107.199 267.288 C 107.200 267.447,106.771 268.527,106.246 269.688 C 105.722 270.850,104.726 273.150,104.034 274.800 C 103.341 276.450,102.531 278.340,102.233 279.000 C 101.935 279.660,101.013 281.820,100.185 283.800 C 98.448 287.950,97.353 290.497,96.574 292.200 C 96.272 292.860,95.458 294.750,94.765 296.400 C 94.073 298.050,93.167 300.155,92.753 301.078 C 92.339 302.001,92.000 302.881,92.000 303.034 C 92.000 303.187,91.649 304.052,91.220 304.956 C 90.790 305.860,89.871 307.950,89.176 309.600 C 88.481 311.250,87.673 313.140,87.380 313.800 C 80.996 328.177,80.561 327.200,93.342 327.200 L 103.055 327.200 104.391 324.100 C 105.125 322.395,106.039 320.280,106.422 319.400 C 106.805 318.520,108.555 314.380,110.311 310.200 C 112.067 306.020,115.256 298.460,117.398 293.400 C 119.540 288.340,121.701 283.210,122.199 282.000 C 122.697 280.790,124.364 276.830,125.904 273.200 C 132.727 257.108,136.559 248.040,137.396 246.000 C 137.892 244.790,141.309 236.690,144.988 228.000 C 148.667 219.310,154.793 204.820,158.600 195.800 C 172.355 163.211,184.386 134.825,188.097 126.200 C 190.179 121.360,192.474 115.735,193.196 113.700 C 194.987 108.655,195.773 108.581,197.396 113.300 C 198.021 115.115,200.824 122.000,203.627 128.600 C 208.199 139.370,214.071 153.270,233.196 198.600 C 240.882 216.818,255.587 251.622,259.898 261.800 C 261.761 266.200,263.695 270.790,264.194 272.000 C 265.160 274.339,271.040 288.260,275.682 299.200 C 277.223 302.830,278.894 306.790,279.395 308.000 C 279.897 309.210,280.840 311.460,281.492 313.000 C 282.144 314.540,283.740 318.362,285.039 321.493 L 287.400 327.186 297.851 327.193 C 311.566 327.202,311.209 327.780,305.380 315.000 C 305.079 314.340,303.817 311.370,302.576 308.400 C 301.334 305.430,299.991 302.280,299.590 301.400 C 299.190 300.520,297.936 297.550,296.804 294.800 C 295.672 292.050,294.410 289.080,294.001 288.200 C 293.591 287.320,292.331 284.350,291.200 281.600 C 290.069 278.850,288.809 275.880,288.400 275.000 C 287.991 274.120,286.731 271.150,285.600 268.400 C 284.469 265.650,283.209 262.680,282.800 261.800 C 282.391 260.920,281.128 257.950,279.993 255.200 C 278.859 252.450,277.587 249.460,277.165 248.556 C 276.744 247.652,276.400 246.802,276.400 246.668 C 276.400 246.534,275.971 245.473,275.446 244.312 C 274.922 243.150,273.918 240.850,273.216 239.200 C 272.514 237.550,271.683 235.633,271.370 234.940 C 271.056 234.246,270.800 233.577,270.800 233.451 C 270.800 233.326,270.368 232.273,269.841 231.112 C 268.644 228.478,267.884 226.694,266.161 222.482 C 265.414 220.657,264.464 218.407,264.049 217.482 C 263.335 215.891,262.027 212.829,259.741 207.400 C 259.185 206.080,258.495 204.460,258.207 203.800 C 257.764 202.785,255.156 196.622,248.730 181.400 C 248.080 179.860,247.299 178.060,246.994 177.400 C 246.690 176.740,245.512 173.950,244.377 171.200 C 242.200 165.926,241.220 163.622,240.039 161.000 C 239.642 160.120,238.740 157.960,238.035 156.200 C 237.329 154.440,236.423 152.280,236.021 151.400 C 235.619 150.520,234.704 148.360,233.986 146.600 C 233.269 144.840,232.325 142.590,231.888 141.600 C 231.451 140.610,230.777 139.080,230.390 138.200 C 230.004 137.320,228.754 134.350,227.613 131.600 C 226.472 128.850,225.211 125.880,224.811 125.000 C 224.412 124.120,223.073 120.970,221.837 118.000 C 220.602 115.030,219.323 112.090,218.995 111.468 C 218.668 110.845,218.400 110.175,218.400 109.979 C 218.400 109.784,217.971 108.673,217.446 107.512 C 216.922 106.350,215.928 104.050,215.239 102.400 C 214.550 100.750,213.719 98.890,213.393 98.268 C 213.067 97.645,212.800 96.975,212.800 96.779 C 212.800 96.584,212.371 95.473,211.846 94.312 C 210.610 91.575,208.970 87.718,206.610 82.000 C 205.566 79.470,204.282 76.387,203.756 75.150 C 203.230 73.912,202.800 72.770,202.800 72.610 C 202.800 72.451,202.540 71.754,202.223 71.060 C 201.905 70.367,200.993 68.090,200.195 66.000 C 199.398 63.910,198.329 61.120,197.820 59.800 C 197.311 58.480,196.805 57.130,196.696 56.800 C 196.572 56.426,196.177 56.928,195.648 58.133 M192.200 289.646 C 190.660 290.300,188.590 291.160,187.600 291.558 C 185.338 292.466,175.259 296.613,165.600 300.610 C 161.530 302.295,157.435 303.943,156.500 304.274 C 155.566 304.604,154.718 305.009,154.617 305.173 C 154.320 305.653,176.764 305.999,208.300 305.999 C 236.160 306.000,239.565 305.872,236.900 304.926 C 236.515 304.790,231.970 302.929,226.800 300.792 C 221.630 298.654,213.980 295.511,209.800 293.806 C 205.620 292.101,200.966 290.188,199.458 289.553 C 196.112 288.146,195.719 288.151,192.200 289.646 " stroke="none" fill="#34fafa" fill-rule="evenodd"></path><path id="path1" d="M0.000 201.200 L 0.000 402.400 200.000 402.400 L 400.000 402.400 400.000 201.200 L 400.000 0.000 200.000 0.000 L 0.000 0.000 0.000 201.200 M197.820 59.800 C 198.329 61.120,199.398 63.910,200.195 66.000 C 200.993 68.090,201.905 70.367,202.223 71.060 C 202.540 71.754,202.800 72.451,202.800 72.610 C 202.800 72.770,203.230 73.912,203.756 75.150 C 204.282 76.387,205.566 79.470,206.610 82.000 C 208.970 87.718,210.610 91.575,211.846 94.312 C 212.371 95.473,212.800 96.584,212.800 96.779 C 212.800 96.975,213.067 97.645,213.393 98.268 C 213.719 98.890,214.550 100.750,215.239 102.400 C 215.928 104.050,216.922 106.350,217.446 107.512 C 217.971 108.673,218.400 109.784,218.400 109.979 C 218.400 110.175,218.668 110.845,218.995 111.468 C 219.323 112.090,220.602 115.030,221.837 118.000 C 223.073 120.970,224.412 124.120,224.811 125.000 C 225.211 125.880,226.472 128.850,227.613 131.600 C 228.754 134.350,230.004 137.320,230.390 138.200 C 230.777 139.080,231.451 140.610,231.888 141.600 C 232.325 142.590,233.269 144.840,233.986 146.600 C 234.704 148.360,235.619 150.520,236.021 151.400 C 236.423 152.280,237.329 154.440,238.035 156.200 C 238.740 157.960,239.642 160.120,240.039 161.000 C 241.220 163.622,242.200 165.926,244.377 171.200 C 245.512 173.950,246.690 176.740,246.994 177.400 C 247.299 178.060,248.080 179.860,248.730 181.400 C 255.156 196.622,257.764 202.785,258.207 203.800 C 258.495 204.460,259.185 206.080,259.741 207.400 C 262.027 212.829,263.335 215.891,264.049 217.482 C 264.464 218.407,265.414 220.657,266.161 222.482 C 267.884 226.694,268.644 228.478,269.841 231.112 C 270.368 232.273,270.800 233.326,270.800 233.451 C 270.800 233.577,271.056 234.246,271.370 234.940 C 271.683 235.633,272.514 237.550,273.216 239.200 C 273.918 240.850,274.922 243.150,275.446 244.312 C 275.971 245.473,276.400 246.534,276.400 246.668 C 276.400 246.802,276.744 247.652,277.165 248.556 C 277.587 249.460,278.859 252.450,279.993 255.200 C 281.128 257.950,282.391 260.920,282.800 261.800 C 283.209 262.680,284.469 265.650,285.600 268.400 C 286.731 271.150,287.991 274.120,288.400 275.000 C 288.809 275.880,290.069 278.850,291.200 281.600 C 292.331 284.350,293.591 287.320,294.001 288.200 C 294.410 289.080,295.672 292.050,296.804 294.800 C 297.936 297.550,299.190 300.520,299.590 301.400 C 299.991 302.280,301.334 305.430,302.576 308.400 C 303.817 311.370,305.079 314.340,305.380 315.000 C 311.209 327.780,311.566 327.202,297.851 327.193 L 287.400 327.186 285.039 321.493 C 283.740 318.362,282.144 314.540,281.492 313.000 C 280.840 311.460,279.897 309.210,279.395 308.000 C 278.894 306.790,277.223 302.830,275.682 299.200 C 271.040 288.260,265.160 274.339,264.194 272.000 C 263.695 270.790,261.761 266.200,259.898 261.800 C 255.587 251.622,240.882 216.818,233.196 198.600 C 214.071 153.270,208.199 139.370,203.627 128.600 C 200.824 122.000,198.021 115.115,197.396 113.300 C 195.773 108.581,194.987 108.655,193.196 113.700 C 192.474 115.735,190.179 121.360,188.097 126.200 C 184.386 134.825,172.355 163.211,158.600 195.800 C 154.793 204.820,148.667 219.310,144.988 228.000 C 141.309 236.690,137.892 244.790,137.396 246.000 C 136.559 248.040,132.727 257.108,125.904 273.200 C 124.364 276.830,122.697 280.790,122.199 282.000 C 121.701 283.210,119.540 288.340,117.398 293.400 C 115.256 298.460,112.067 306.020,110.311 310.200 C 108.555 314.380,106.805 318.520,106.422 319.400 C 106.039 320.280,105.125 322.395,104.391 324.100 L 103.055 327.200 93.342 327.200 C 80.561 327.200,80.996 328.177,87.380 313.800 C 87.673 313.140,88.481 311.250,89.176 309.600 C 89.871 307.950,90.790 305.860,91.220 304.956 C 91.649 304.052,92.000 303.187,92.000 303.034 C 92.000 302.881,92.339 302.001,92.753 301.078 C 93.167 300.155,94.073 298.050,94.765 296.400 C 95.458 294.750,96.272 292.860,96.574 292.200 C 97.353 290.497,98.448 287.950,100.185 283.800 C 101.013 281.820,101.935 279.660,102.233 279.000 C 102.531 278.340,103.341 276.450,104.034 274.800 C 104.726 273.150,105.722 270.850,106.246 269.688 C 106.771 268.527,107.200 267.447,107.199 267.288 C 107.198 267.130,107.558 266.235,107.999 265.300 C 108.440 264.365,109.160 262.835,109.601 261.900 C 110.042 260.965,110.402 260.070,110.401 259.912 C 110.400 259.753,110.827 258.673,111.349 257.512 C 112.323 255.345,112.861 254.096,116.388 245.800 C 117.511 243.160,118.678 240.460,118.983 239.800 C 119.288 239.140,120.546 236.170,121.779 233.200 C 123.011 230.230,124.271 227.260,124.579 226.600 C 125.616 224.373,128.901 216.612,129.471 215.042 C 129.782 214.185,130.298 213.110,130.618 212.653 C 130.938 212.196,131.200 211.597,131.200 211.323 C 131.200 211.048,131.629 209.873,132.154 208.712 C 132.678 207.550,133.680 205.250,134.380 203.600 C 135.079 201.950,135.906 200.060,136.216 199.400 C 136.526 198.740,137.785 195.770,139.013 192.800 C 140.242 189.830,141.500 186.860,141.811 186.200 C 142.121 185.540,142.940 183.650,143.631 182.000 C 144.322 180.350,145.125 178.460,145.416 177.800 C 145.706 177.140,146.965 174.170,148.214 171.200 C 149.463 168.230,150.815 165.080,151.219 164.200 C 151.623 163.320,152.884 160.350,154.021 157.600 C 156.186 152.364,157.071 150.323,158.401 147.500 C 158.842 146.565,159.202 145.670,159.201 145.512 C 159.200 145.353,159.629 144.273,160.154 143.112 C 160.678 141.950,161.674 139.650,162.366 138.000 C 163.059 136.350,163.879 134.460,164.189 133.800 C 164.499 133.140,165.765 130.170,167.002 127.200 C 168.239 124.230,169.498 121.260,169.800 120.600 C 170.101 119.940,170.921 118.050,171.621 116.400 C 172.321 114.750,173.233 112.645,173.647 111.722 C 174.061 110.799,174.400 109.949,174.400 109.834 C 174.400 109.718,174.827 108.673,175.349 107.512 C 175.871 106.350,176.784 104.230,177.377 102.800 C 177.970 101.370,178.770 99.570,179.154 98.800 C 179.538 98.030,180.095 96.635,180.390 95.700 C 180.686 94.765,181.079 94.000,181.264 94.000 C 181.449 94.000,181.600 93.732,181.600 93.404 C 181.600 92.741,183.414 88.342,186.303 82.000 C 186.754 81.010,187.308 79.660,187.533 79.000 C 187.758 78.340,188.764 75.820,189.767 73.400 C 190.771 70.980,191.594 68.847,191.596 68.660 C 191.598 68.474,191.857 67.754,192.172 67.060 C 192.957 65.331,194.800 60.591,194.800 60.302 C 194.800 59.484,196.527 56.293,196.696 56.800 C 196.805 57.130,197.311 58.480,197.820 59.800 M199.458 289.553 C 200.966 290.188,205.620 292.101,209.800 293.806 C 213.980 295.511,221.630 298.654,226.800 300.792 C 231.970 302.929,236.515 304.790,236.900 304.926 C 239.565 305.872,236.160 306.000,208.300 305.999 C 176.764 305.999,154.320 305.653,154.617 305.173 C 154.718 305.009,155.566 304.604,156.500 304.274 C 157.435 303.943,161.530 302.295,165.600 300.610 C 175.259 296.613,185.338 292.466,187.600 291.558 C 188.590 291.160,190.660 290.300,192.200 289.646 C 195.719 288.151,196.112 288.146,199.458 289.553 " stroke="none" fill="#4c4c4c" fill-rule="evenodd"></path></g></svg>